# xmcd
#
# Track frame offsets:
#	150
#	21027
#	39300
#	55445
#	71487
#	87985
#	109137
#	123045
#	137715
#	157567
#	180035
#	201322
#	220810
#	242527
#	260070
#
# Disc length: 3704 seconds
#
# Revision: 1
# Processed by: cddbd v1.5.1PL0 Copyright (c) Steve Scherf et al.
# Submitted via: CDex 1.50Beta5
#
DISCID=c20e760f
DTITLE=松尾清憲 - Help!Help!Help!
DYEAR=2000
DGENRE=
TTITLE0=僕等のハックルベリーフィン
TTITLE1=アマゾン ボーイ
TTITLE2=ムーンライト ランデヴー
TTITLE3=ハイヒールでタイトロープ
TTITLE4=タイム・リミット・ラヴ
TTITLE5=さよならは ヴァニラ色
TTITLE6=イノセント アイズ
TTITLE7=ヤンガーガール
TTITLE8=プラスティック・レディ
TTITLE9=アルコール モナムール
TTITLE10=僕等のハックルベリーフィン(ライヴ)
TTITLE11=アマゾン ボーイ(ライヴ)
TTITLE12=アルコール モナムール(ライヴ)
TTITLE13=ムーンライト ランデヴー(ライヴ)
TTITLE14=星達 レクイエム
EXTD=
EXTT0=
EXTT1=
EXTT2=
EXTT3=
EXTT4=
EXTT5=
EXTT6=
EXTT7=
EXTT8=
EXTT9=
EXTT10=
EXTT11=
EXTT12=
EXTT13=
EXTT14=
PLAYORDER=
